# xmcd
#
# Track frame offsets: 
#        150
#        18015
#        34858
#        46838
#        62676
#        77715
#        92526
#        106197
#        115173
#        127685
#        142906
#        158848
#
# Disc length: 2408 seconds
#
# Revision: 0
# Processed by: cddbd v1.5.2PL0 Copyright (c) Steve Scherf et al.
# Submitted via: ExactAudioCopyFreeDBPlugin 1.0
#
DISCID=8209660c
DTITLE=Will Oldham  - Songs of Love and Horror
DYEAR=2018
DGENRE=Folk
TTITLE0=I See a Darkness
TTITLE1=Ohio River Boat Song
TTITLE2=So Far and Here We Are
TTITLE3=The Way
TTITLE4=Wai
TTITLE5=The Glory Goes
TTITLE6=Only Someone Running
TTITLE7=Big Friday
TTITLE8=Most People
TTITLE9=Strange Affair
TTITLE10=New Partner
TTITLE11=Party With Marty (Abstract Blues)
EXTD=
EXTT0=
EXTT1=
EXTT2=
EXTT3=
EXTT4=
EXTT5=
EXTT6=
EXTT7=
EXTT8=
EXTT9=
EXTT10=
EXTT11=
PLAYORDER=
